<svg xmlns="http://www.w3.org/2000/svg" viewBox="0 0 24 24" fill="none" stroke="currentColor" stroke-width="1.5" stroke-linecap="round" stroke-linejoin="round">
  <!-- Awning top -->
  <path d="M2 9 L4.5 3 L19.5 3 L22 9" />
  <!-- Awning waves -->
  <path d="M2 9 C2 11 4 12 6 9" />
  <path d="M6 9 C6 11 8 12 10 9" />
  <path d="M10 9 C10 11 12 12 14 9" />
  <path d="M14 9 C14 11 16 12 18 9" />
  <path d="M18 9 C18 11 20 12 22 9" />
  <!-- Store body -->
  <rect x="2" y="9" width="20" height="12" rx="1" />
  <!-- Door -->
  <path d="M9 21 L9 16 C9 15.2 9.4 15 10 15 L14 15 C14.6 15 15 15.2 15 16 L15 21" />
</svg>
